<svg width="37" height="39" viewBox="0 0 37 39" fill="none" xmlns="http://www.w3.org/2000/svg">
<g filter="url(#filter0_d_1642_35)">
<path d="M28.8666 12.5C30.4743 11.9427 30.4827 9.6721 28.8792 9.10297L9.15789 2.10328C7.70427 1.58735 6.31747 3.01921 6.8796 4.45559L14.6942 24.4238C15.2154 25.7555 17.1275 25.6719 17.5303 24.2997L19.8849 16.2796C20.0215 15.8143 20.3747 15.4437 20.8329 15.2849L28.8666 12.5Z" fill="#09091F"/>
<path d="M9.28308 1.7498C7.52672 1.12662 5.85098 2.85678 6.53018 4.59233L14.3451 24.5606C14.9967 26.2251 17.3867 26.1205 17.8903 24.4054L20.2447 16.3853C20.3471 16.0363 20.6126 15.758 20.9562 15.6389L28.9891 12.8538C30.9317 12.1805 30.942 9.43722 29.0045 8.74952L9.28308 1.7498Z" stroke="white" stroke-width="0.75"/>
</g>
<defs>
<filter id="filter0_d_1642_35" x="0" y="1.24414" width="36.8271" height="36.8831" filterUnits="userSpaceOnUse" color-interpolation-filters="sRGB">
<feFlood flood-opacity="0" result="BackgroundImageFix"/>
<feColorMatrix in="SourceAlpha" type="matrix" values="0 0 0 0 0 0 0 0 0 0 0 0 0 0 0 0 0 0 127 0" result="hardAlpha"/>
<feOffset dy="6"/>
<feGaussianBlur stdDeviation="3"/>
<feComposite in2="hardAlpha" operator="out"/>
<feColorMatrix type="matrix" values="0 0 0 0 0 0 0 0 0 0 0 0 0 0 0 0 0 0 0.1 0"/>
<feBlend mode="normal" in2="BackgroundImageFix" result="effect1_dropShadow_1642_35"/>
<feBlend mode="normal" in="SourceGraphic" in2="effect1_dropShadow_1642_35" result="shape"/>
</filter>
</defs>
</svg>
