<svg preserveAspectRatio="none" width="100%" height="100%" overflow="visible" style="display: block;" viewBox="0 0 144 22.1613" fill="none" xmlns="http://www.w3.org/2000/svg">
<g id="Jeremy LOGO">
<g id="Union">
<mask id="path-1-outside-1_0_4" maskUnits="userSpaceOnUse" x="122" y="0.000217438" width="22" height="22" fill="black">
<rect fill="white" x="122" y="0.000217438" width="22" height="22"/>
<path fill-rule="evenodd" clip-rule="evenodd" d="M132.062 16.5818C126.979 16.1092 123 11.8319 123 6.62518V1.00022C124.035 1.00022 124.875 1.83968 124.875 2.87521V6.62518C124.875 11.1125 128.512 14.7501 133 14.7501C137.487 14.7501 141.125 11.1125 141.125 6.62518V1.00022C142.16 1.00022 143 1.83968 143 2.87521V6.62518C143 11.8319 139.021 16.1092 133.937 16.5818V19.1251C133.937 20.1606 133.098 21.0001 132.062 21.0001V16.5818Z"/>
</mask>
<path fill-rule="evenodd" clip-rule="evenodd" d="M132.062 16.5818C126.979 16.1092 123 11.8319 123 6.62518V1.00022C124.035 1.00022 124.875 1.83968 124.875 2.87521V6.62518C124.875 11.1125 128.512 14.7501 133 14.7501C137.487 14.7501 141.125 11.1125 141.125 6.62518V1.00022C142.16 1.00022 143 1.83968 143 2.87521V6.62518C143 11.8319 139.021 16.1092 133.937 16.5818V19.1251C133.937 20.1606 133.098 21.0001 132.062 21.0001V16.5818Z" fill="var(--fill-0, white)"/>
<path d="M132.062 16.5818H133.062V15.6704L132.155 15.5861L132.062 16.5818ZM123 1.00022V0.000217438H122V1.00022H123ZM141.125 1.00022V0.000217438H140.125V1.00022H141.125ZM133.937 16.5818L133.845 15.5861L132.937 15.6704V16.5818H133.937ZM132.062 21.0001H131.062V22.0001H132.062V21.0001ZM123 6.62518H122C122 12.3532 126.377 17.0575 131.97 17.5775L132.062 16.5818L132.155 15.5861C127.581 15.1608 124 11.3107 124 6.62518H123ZM123 1.00022H122V6.62518H123H124V1.00022H123ZM124.875 2.87521H125.875C125.875 1.28739 124.588 0.000217438 123 0.000217438V1.00022V2.00022C123.483 2.00022 123.875 2.39196 123.875 2.87521H124.875ZM124.875 6.62518H125.875V2.87521H124.875H123.875V6.62518H124.875ZM133 14.7501V13.7501C129.065 13.7501 125.875 10.5602 125.875 6.62518H124.875H123.875C123.875 11.6647 127.96 15.7501 133 15.7501V14.7501ZM141.125 6.62518H140.125C140.125 10.5602 136.935 13.7501 133 13.7501V14.7501V15.7501C138.039 15.7501 142.125 11.6647 142.125 6.62518H141.125ZM141.125 1.00022H140.125V6.62518H141.125H142.125V1.00022H141.125ZM143 2.87521H144C144 1.28739 142.713 0.000217438 141.125 0.000217438V1.00022V2.00022C141.608 2.00022 142 2.39196 142 2.87521H143ZM143 6.62518H144V2.87521H143H142V6.62518H143ZM133.937 16.5818L134.03 17.5775C139.623 17.0575 144 12.3532 144 6.62518H143H142C142 11.3107 138.419 15.1608 133.845 15.5861L133.937 16.5818ZM133.937 16.5818H132.937V19.1251H133.937H134.937V16.5818H133.937ZM133.937 19.1251H132.937C132.937 19.6084 132.546 20.0001 132.062 20.0001V21.0001V22.0001C133.65 22.0001 134.937 20.7129 134.937 19.1251H133.937ZM132.062 21.0001H133.062V16.5818H132.062H131.062V21.0001H132.062Z" fill="var(--stroke-0, white)" mask="url(#path-1-outside-1_0_4)"/>
</g>
<g id="Union_2">
<mask id="path-3-outside-2_0_4" maskUnits="userSpaceOnUse" x="47.0006" y="0.000144958" width="24" height="22" fill="black">
<rect fill="white" x="47.0006" y="0.000144958" width="24" height="22"/>
<path fill-rule="evenodd" clip-rule="evenodd" d="M63.0485 16.005C65.841 14.8278 67.8034 12.0464 67.8034 8.80272C67.8034 4.49347 64.34 1.00014 60.0679 1.00014H49.8732C48.839 1.00014 48.0006 1.83854 48.0006 2.87276H60.0679C63.315 2.87276 65.9469 5.52777 65.9469 8.80272C65.9469 12.0778 63.315 14.7327 60.0679 14.7327H49.8732C48.839 14.7327 48.0006 15.5711 48.0006 16.6053H48.0007V20.9746C49.0261 20.9746 49.8572 20.1434 49.8572 19.1181V16.6053H60.0679C60.3712 16.6053 60.6703 16.5877 60.9644 16.5534L60.9964 16.5834L64.6462 20.2648C65.113 20.7357 65.7461 21.0002 66.4063 21.0002H68.0007L63.0485 16.005Z"/>
</mask>
<path fill-rule="evenodd" clip-rule="evenodd" d="M63.0485 16.005C65.841 14.8278 67.8034 12.0464 67.8034 8.80272C67.8034 4.49347 64.34 1.00014 60.0679 1.00014H49.8732C48.839 1.00014 48.0006 1.83854 48.0006 2.87276H60.0679C63.315 2.87276 65.9469 5.52777 65.9469 8.80272C65.9469 12.0778 63.315 14.7327 60.0679 14.7327H49.8732C48.839 14.7327 48.0006 15.5711 48.0006 16.6053H48.0007V20.9746C49.0261 20.9746 49.8572 20.1434 49.8572 19.1181V16.6053H60.0679C60.3712 16.6053 60.6703 16.5877 60.9644 16.5534L60.9964 16.5834L64.6462 20.2648C65.113 20.7357 65.7461 21.0002 66.4063 21.0002H68.0007L63.0485 16.005Z" fill="var(--fill-0, white)"/>
<path d="M63.0485 16.005L62.66 15.0835L61.2966 15.6583L62.3383 16.7091L63.0485 16.005ZM48.0006 2.87276H47.0006V3.87276H48.0006V2.87276ZM48.0006 16.6053H47.0006V17.6053H48.0006V16.6053ZM48.0007 16.6053H49.0007V15.6053H48.0007V16.6053ZM48.0007 20.9746H47.0007V21.9746H48.0007V20.9746ZM49.8572 16.6053V15.6053H48.8572V16.6053H49.8572ZM60.9644 16.5534L61.6485 15.824L61.3099 15.5065L60.8488 15.5602L60.9644 16.5534ZM60.9964 16.5834L61.7065 15.8793L61.6937 15.8664L61.6804 15.8539L60.9964 16.5834ZM64.6462 20.2648L63.936 20.9689V20.9689L64.6462 20.2648ZM66.4063 21.0002V20.0002H66.4063L66.4063 21.0002ZM68.0007 21.0002V22.0002H70.4003L68.7109 20.2962L68.0007 21.0002ZM67.8034 8.80272H66.8034C66.8034 11.6342 65.0913 14.0586 62.66 15.0835L63.0485 16.005L63.4369 16.9265C66.5907 15.5971 68.8034 12.4587 68.8034 8.80272H67.8034ZM60.0679 1.00014V2.00014C63.7796 2.00014 66.8034 5.03761 66.8034 8.80272H67.8034H68.8034C68.8034 3.94933 64.9004 0.000144958 60.0679 0.000144958V1.00014ZM49.8732 1.00014V2.00014H60.0679V1.00014V0.000144958H49.8732V1.00014ZM48.0006 2.87276H49.0006C49.0006 2.39083 49.3913 2.00014 49.8732 2.00014V1.00014V0.000144958C48.2867 0.000144958 47.0006 1.28626 47.0006 2.87276H48.0006ZM60.0679 2.87276V1.87276H48.0006V2.87276V3.87276H60.0679V2.87276ZM65.9469 8.80272H66.9469C66.9469 4.98368 63.8755 1.87276 60.0679 1.87276V2.87276V3.87276C62.7546 3.87276 64.9469 6.07186 64.9469 8.80272H65.9469ZM60.0679 14.7327V15.7327C63.8755 15.7327 66.9469 12.6219 66.9469 8.80272H65.9469H64.9469C64.9469 11.5337 62.7546 13.7327 60.0679 13.7327V14.7327ZM49.8732 14.7327V15.7327H60.0679V14.7327V13.7327H49.8732V14.7327ZM48.0006 16.6053H49.0006C49.0006 16.1234 49.3913 15.7327 49.8732 15.7327V14.7327V13.7327C48.2867 13.7327 47.0006 15.0188 47.0006 16.6053H48.0006ZM48.0007 16.6053V15.6053H48.0006V16.6053V17.6053H48.0007V16.6053ZM48.0007 20.9746H49.0007V16.6053H48.0007H47.0007V20.9746H48.0007ZM49.8572 19.1181H48.8572C48.8572 19.5911 48.4738 19.9746 48.0007 19.9746V20.9746V21.9746C49.5783 21.9746 50.8572 20.6957 50.8572 19.1181H49.8572ZM49.8572 16.6053H48.8572V19.1181H49.8572H50.8572V16.6053H49.8572ZM60.0679 16.6053V15.6053H49.8572V16.6053V17.6053H60.0679V16.6053ZM60.9644 16.5534L60.8488 15.5602C60.593 15.5899 60.3324 15.6053 60.0679 15.6053V16.6053V17.6053C60.4099 17.6053 60.7476 17.5854 61.0801 17.5467L60.9644 16.5534ZM60.9964 16.5834L61.6804 15.8539L61.6485 15.824L60.9644 16.5534L60.2804 17.2829L60.3123 17.3128L60.9964 16.5834ZM64.6462 20.2648L65.3563 19.5608L61.7065 15.8793L60.9964 16.5834L60.2862 17.2874L63.936 20.9689L64.6462 20.2648ZM66.4063 21.0002L66.4063 20.0002C66.0141 20.0002 65.6363 19.8432 65.3563 19.5608L64.6462 20.2648L63.936 20.9689C64.5897 21.6282 65.4781 22.0002 66.4063 22.0002L66.4063 21.0002ZM68.0007 21.0002V20.0002H66.4063V21.0002V22.0002H68.0007V21.0002ZM63.0485 16.005L62.3383 16.7091L67.2906 21.7043L68.0007 21.0002L68.7109 20.2962L63.7586 15.301L63.0485 16.005Z" fill="var(--stroke-0, white)" mask="url(#path-3-outside-2_0_4)"/>
</g>
<path id="Union_3" fill-rule="evenodd" clip-rule="evenodd" d="M5 21.5C5 21.5 4.69444 21.3925 4.5 21.32C2.6563 20.6321 0 19.0526 0 19.0526C1.01701 17.2911 3.17151 16.5573 5 17.3203C5.03495 17.3349 5.5 17.5 5.5 17.5C5.5 17.5 6.9264 18 8 18C11.866 18 15 14.866 15 11V0C17.2091 0 19 1.79086 19 4V11C19 17.0751 14.0751 22 8 22C6.95998 22 5 21.5 5 21.5Z" fill="var(--fill-0, white)"/>
<g id="Union_4">
<mask id="path-6-outside-3_0_4" maskUnits="userSpaceOnUse" x="22.001" y="0.000217438" width="23" height="22" fill="black">
<rect fill="white" x="22.001" y="0.000217438" width="23" height="22"/>
<path fill-rule="evenodd" clip-rule="evenodd" d="M23.001 11.0002C23.001 5.47727 27.4779 1.00022 33.001 1.00022H40.7151C41.837 1.00022 42.7708 1.80893 42.9643 2.87521H33.001C28.5137 2.87521 24.876 6.51288 24.876 11.0002C24.876 15.4874 28.5137 19.1251 33.001 19.1251H41.1259C42.1614 19.1251 43.0009 19.9646 43.0009 21.0001H33.001C27.4779 21.0001 23.001 16.523 23.001 11.0002ZM40.126 10.3752H30.001C30.001 11.4107 30.8405 12.2502 31.876 12.2502H42.001C42.001 11.2147 41.1616 10.3752 40.126 10.3752Z"/>
</mask>
<path fill-rule="evenodd" clip-rule="evenodd" d="M23.001 11.0002C23.001 5.47727 27.4779 1.00022 33.001 1.00022H40.7151C41.837 1.00022 42.7708 1.80893 42.9643 2.87521H33.001C28.5137 2.87521 24.876 6.51288 24.876 11.0002C24.876 15.4874 28.5137 19.1251 33.001 19.1251H41.1259C42.1614 19.1251 43.0009 19.9646 43.0009 21.0001H33.001C27.4779 21.0001 23.001 16.523 23.001 11.0002ZM40.126 10.3752H30.001C30.001 11.4107 30.8405 12.2502 31.876 12.2502H42.001C42.001 11.2147 41.1616 10.3752 40.126 10.3752Z" fill="var(--fill-0, white)"/>
<path d="M42.9643 2.87521V3.87521H44.1621L43.9482 2.69667L42.9643 2.87521ZM43.0009 21.0001V22.0001H44.0009V21.0001H43.0009ZM30.001 10.3752V9.37522H29.001V10.3752H30.001ZM42.001 12.2502V13.2502H43.001V12.2502H42.001ZM33.001 1.00022V0.000217438C26.9256 0.000217438 22.001 4.925 22.001 11.0002H23.001H24.001C24.001 6.02955 28.0302 2.00022 33.001 2.00022V1.00022ZM40.7151 1.00022V0.000217438H33.001V1.00022V2.00022H40.7151V1.00022ZM42.9643 2.87521L43.9482 2.69667C43.6699 1.16306 42.3288 0.000217438 40.7151 0.000217438V1.00022V2.00022C41.3451 2.00022 41.8717 2.4548 41.9803 3.05374L42.9643 2.87521ZM33.001 2.87521V3.87521H42.9643V2.87521V1.87521H33.001V2.87521ZM24.876 11.0002H25.876C25.876 7.06516 29.066 3.87521 33.001 3.87521V2.87521V1.87521C27.9614 1.87521 23.876 5.9606 23.876 11.0002H24.876ZM33.001 19.1251V18.1251C29.066 18.1251 25.876 14.9352 25.876 11.0002H24.876H23.876C23.876 16.0397 27.9614 20.1251 33.001 20.1251V19.1251ZM41.1259 19.1251V18.1251H33.001V19.1251V20.1251H41.1259V19.1251ZM43.0009 21.0001H44.0009C44.0009 19.4123 42.7137 18.1251 41.1259 18.1251V19.1251V20.1251C41.6092 20.1251 42.0009 20.5169 42.0009 21.0001H43.0009ZM33.001 21.0001V22.0001H43.0009V21.0001V20.0001H33.001V21.0001ZM23.001 11.0002H22.001C22.001 17.0753 26.9256 22.0001 33.001 22.0001V21.0001V20.0001C28.0302 20.0001 24.001 15.9708 24.001 11.0002H23.001ZM30.001 10.3752V11.3752H40.126V10.3752V9.37522H30.001V10.3752ZM31.876 12.2502V11.2502C31.3928 11.2502 31.001 10.8585 31.001 10.3752H30.001H29.001C29.001 11.963 30.2882 13.2502 31.876 13.2502V12.2502ZM42.001 12.2502V11.2502H31.876V12.2502V13.2502H42.001V12.2502ZM40.126 10.3752V11.3752C40.6093 11.3752 41.001 11.767 41.001 12.2502H42.001H43.001C43.001 10.6624 41.7138 9.37522 40.126 9.37522V10.3752Z" fill="var(--stroke-0, white)" mask="url(#path-6-outside-3_0_4)"/>
</g>
<g id="Union_5">
<mask id="path-8-outside-4_0_4" maskUnits="userSpaceOnUse" x="72.0004" y="0.000144958" width="23" height="22" fill="black">
<rect fill="white" x="72.0004" y="0.000144958" width="23" height="22"/>
<path fill-rule="evenodd" clip-rule="evenodd" d="M73.0004 11.0001C73.0004 5.4772 77.4773 1.00014 83.0004 1.00014H90.7146C91.8364 1.00014 92.7702 1.80886 92.9637 2.87513H83.0004C78.5131 2.87513 74.8754 6.51281 74.8754 11.0001C74.8754 15.4874 78.5131 19.125 83.0004 19.125H91.1253C92.1608 19.125 93.0003 19.9645 93.0003 21H83.0004C77.4773 21 73.0004 16.523 73.0004 11.0001ZM90.1254 10.3751H80.0004C80.0004 11.4107 80.8399 12.2501 81.8754 12.2501H92.0004C92.0004 11.2146 91.161 10.3751 90.1254 10.3751Z"/>
</mask>
<path fill-rule="evenodd" clip-rule="evenodd" d="M73.0004 11.0001C73.0004 5.4772 77.4773 1.00014 83.0004 1.00014H90.7146C91.8364 1.00014 92.7702 1.80886 92.9637 2.87513H83.0004C78.5131 2.87513 74.8754 6.51281 74.8754 11.0001C74.8754 15.4874 78.5131 19.125 83.0004 19.125H91.1253C92.1608 19.125 93.0003 19.9645 93.0003 21H83.0004C77.4773 21 73.0004 16.523 73.0004 11.0001ZM90.1254 10.3751H80.0004C80.0004 11.4107 80.8399 12.2501 81.8754 12.2501H92.0004C92.0004 11.2146 91.161 10.3751 90.1254 10.3751Z" fill="var(--fill-0, white)"/>
<path d="M92.9637 2.87513V3.87513H94.1615L93.9476 2.6966L92.9637 2.87513ZM93.0003 21V22H94.0003V21H93.0003ZM80.0004 10.3751V9.37514H79.0004V10.3751H80.0004ZM92.0004 12.2501V13.2501H93.0004V12.2501H92.0004ZM83.0004 1.00014V0.000144958C76.925 0.000144958 72.0004 4.92492 72.0004 11.0001H73.0004H74.0004C74.0004 6.02947 78.0296 2.00014 83.0004 2.00014V1.00014ZM90.7146 1.00014V0.000144958H83.0004V1.00014V2.00014H90.7146V1.00014ZM92.9637 2.87513L93.9476 2.6966C93.6693 1.16298 92.3282 0.000144958 90.7146 0.000144958V1.00014V2.00014C91.3446 2.00014 91.8711 2.45473 91.9798 3.05367L92.9637 2.87513ZM83.0004 2.87513V3.87513H92.9637V2.87513V1.87513H83.0004V2.87513ZM74.8754 11.0001H75.8754C75.8754 7.06509 79.0654 3.87513 83.0004 3.87513V2.87513V1.87513C77.9608 1.87513 73.8754 5.96052 73.8754 11.0001H74.8754ZM83.0004 19.125V18.125C79.0654 18.125 75.8754 14.9351 75.8754 11.0001H74.8754H73.8754C73.8754 16.0396 77.9608 20.125 83.0004 20.125V19.125ZM91.1253 19.125V18.125H83.0004V19.125V20.125H91.1253V19.125ZM93.0003 21H94.0003C94.0003 19.4122 92.7131 18.125 91.1253 18.125V19.125V20.125C91.6086 20.125 92.0003 20.5168 92.0003 21H93.0003ZM83.0004 21V22H93.0003V21V20H83.0004V21ZM73.0004 11.0001H72.0004C72.0004 17.0752 76.925 22 83.0004 22V21V20C78.0296 20 74.0004 15.9707 74.0004 11.0001H73.0004ZM80.0004 10.3751V11.3751H90.1254V10.3751V9.37514H80.0004V10.3751ZM81.8754 12.2501V11.2501C81.3922 11.2501 81.0004 10.8584 81.0004 10.3751H80.0004H79.0004C79.0004 11.963 80.2876 13.2501 81.8754 13.2501V12.2501ZM92.0004 12.2501V11.2501H81.8754V12.2501V13.2501H92.0004V12.2501ZM90.1254 10.3751V11.3751C90.6087 11.3751 91.0004 11.7669 91.0004 12.2501H92.0004H93.0004C93.0004 10.6623 91.7133 9.37514 90.1254 9.37514V10.3751Z" fill="var(--stroke-0, white)" mask="url(#path-8-outside-4_0_4)"/>
</g>
<g id="Union_6">
<mask id="path-10-outside-5_0_4" maskUnits="userSpaceOnUse" x="96.9999" y="0.00021652" width="22" height="23" fill="black">
<rect fill="white" x="96.9999" y="0.00021652" width="22" height="23"/>
<path fill-rule="evenodd" clip-rule="evenodd" d="M108 1.00022C113.523 1.00022 118 5.47712 118 11.0002L118 18.7143C118 19.8362 117.191 20.77 116.125 20.9635L116.125 11.0002C116.125 6.51288 112.487 2.87521 108 2.87521C103.513 2.87521 99.875 6.51288 99.875 11.0002L99.875 19.1251C99.875 20.1606 99.0355 21.0001 98 21.0001L98 11.0002C98 5.47712 102.477 1.00022 108 1.00022ZM108.625 18.1252L108.625 8.00022C107.589 8.00022 106.75 8.83968 106.75 9.87521L106.75 20.0002C107.785 20.0002 108.625 19.1608 108.625 18.1252Z"/>
</mask>
<path fill-rule="evenodd" clip-rule="evenodd" d="M108 1.00022C113.523 1.00022 118 5.47712 118 11.0002L118 18.7143C118 19.8362 117.191 20.77 116.125 20.9635L116.125 11.0002C116.125 6.51288 112.487 2.87521 108 2.87521C103.513 2.87521 99.875 6.51288 99.875 11.0002L99.875 19.1251C99.875 20.1606 99.0355 21.0001 98 21.0001L98 11.0002C98 5.47712 102.477 1.00022 108 1.00022ZM108.625 18.1252L108.625 8.00022C107.589 8.00022 106.75 8.83968 106.75 9.87521L106.75 20.0002C107.785 20.0002 108.625 19.1608 108.625 18.1252Z" fill="var(--fill-0, white)"/>
<path d="M118 11.0002L119 11.0002L118 11.0002ZM118 18.7143L117 18.7143L118 18.7143ZM116.125 20.9635L115.125 20.9635L115.125 22.1613L116.303 21.9474L116.125 20.9635ZM98 21.0001L97 21.0001L97 22.0001L98 22.0001L98 21.0001ZM108.625 8.00022L109.625 8.00022L109.625 7.00022L108.625 7.00022L108.625 8.00022ZM106.75 20.0002L105.75 20.0002L105.75 21.0002L106.75 21.0002L106.75 20.0002ZM118 11.0002L119 11.0002C119 4.92482 114.075 0.000217266 108 0.000217001L108 1.00022L108 2.00022C112.971 2.00022 117 6.02941 117 11.0002L118 11.0002ZM118 18.7143L119 18.7143L119 11.0002L118 11.0002L117 11.0002L117 18.7143L118 18.7143ZM116.125 20.9635L116.303 21.9474C117.837 21.6691 119 20.328 119 18.7143L118 18.7143L117 18.7143C117 19.3443 116.545 19.8709 115.946 19.9795L116.125 20.9635ZM116.125 11.0002L115.125 11.0002L115.125 20.9635L116.125 20.9635L117.125 20.9635L117.125 11.0002L116.125 11.0002ZM108 2.87521L108 3.87521C111.935 3.87521 115.125 7.06516 115.125 11.0002L116.125 11.0002L117.125 11.0002C117.125 5.9606 113.04 1.87521 108 1.87521L108 2.87521ZM99.875 11.0002L100.875 11.0002C100.875 7.06516 104.065 3.87521 108 3.87521L108 2.87521L108 1.87521C102.96 1.87521 98.875 5.96059 98.875 11.0002L99.875 11.0002ZM99.875 19.1251L100.875 19.1251L100.875 11.0002L99.875 11.0002L98.875 11.0002L98.875 19.1251L99.875 19.1251ZM98 21.0001L98 22.0001C99.5878 22.0001 100.875 20.7129 100.875 19.1251L99.875 19.1251L98.875 19.1251C98.875 19.6084 98.4832 20.0001 98 20.0001L98 21.0001ZM98 11.0002L97 11.0002L97 21.0001L98 21.0001L99 21.0001L99 11.0002L98 11.0002ZM108 1.00022L108 0.000217001C101.925 0.000216735 97 4.92482 97 11.0002L98 11.0002L99 11.0002C99 6.02941 103.029 2.00022 108 2.00022L108 1.00022ZM108.625 8.00022L107.625 8.00022L107.625 18.1252L108.625 18.1252L109.625 18.1252L109.625 8.00022L108.625 8.00022ZM106.75 9.87521L107.75 9.87521C107.75 9.39196 108.142 9.00022 108.625 9.00022L108.625 8.00022L108.625 7.00022C107.037 7.00022 105.75 8.28739 105.75 9.87521L106.75 9.87521ZM106.75 20.0002L107.75 20.0002L107.75 9.87521L106.75 9.87521L105.75 9.87521L105.75 20.0002L106.75 20.0002ZM108.625 18.1252L107.625 18.1252C107.625 18.6085 107.233 19.0002 106.75 19.0002L106.75 20.0002L106.75 21.0002C108.338 21.0002 109.625 19.713 109.625 18.1252L108.625 18.1252Z" fill="var(--stroke-0, white)" mask="url(#path-10-outside-5_0_4)"/>
</g>
</g>
</svg>
